<?xml version="1.0" encoding="utf-8"?>
<!-- Generator: Adobe Illustrator 25.4.1, SVG Export Plug-In . SVG Version: 6.00 Build 0)  -->
<svg version="1.1" id="katman_1" xmlns="http://www.w3.org/2000/svg" xmlns:xlink="http://www.w3.org/1999/xlink" x="0px" y="0px"
	 viewBox="0 0 1000 366.95" style="enable-background:new 0 0 1000 366.95;" xml:space="preserve">
<style type="text/css">
	.st0{fill:#002B69;}
	.st1{fill:#FFB500;}
	.st2{fill:#000B5F;}
	.st3{fill:#E69800;}
</style>
<g>
	<g>
		<path class="st0" d="M103.47,256.96c15.79-7.33,25.38-23.41,25.38-40.89c0-34.69-26.51-55.56-66.53-55.56H11.5
			c-6.36,0-11.5,5.14-11.5,11.5v180.05c0,6.33,5.14,11.5,11.5,11.5h58.16c40.33,0,67.37-22.84,67.37-57.25
			C137.03,284.03,123.49,264.29,103.47,256.96z M26.23,182.51H64.3c23.13,0,36.94,14.1,36.94,34.97c0,16.36-8.49,27.64-21.15,31.02
			H26.23V182.51z M70.5,341.57H26.23v-71.92h49.64c20.02,0,33.53,13.82,33.53,35.53S93.91,341.57,70.5,341.57z"/>
		<path class="st0" d="M275.5,355.01c0,2.95-1.1,5.64-2.95,7.68c-1.85,2.04-4.42,3.45-7.33,3.76c-2.51,0.28-5.39,0.5-8.62,0.5
			c-20.84,0-36.07-11-36.07-39.48V172.01c0-6.36,5.14-11.5,11.5-11.5h3.23c6.33,0,11.5,5.14,11.5,11.5v150.1
			c0,15.23,4.79,21.43,16.36,21.43h0.69C270.24,343.42,275.5,348.59,275.5,355.01z"/>
		<path class="st0" d="M186.13,234.05v118.01c0,6.33-5.17,11.5-11.5,11.5h-3.23c-6.36,0-11.5-5.17-11.5-11.5V234.05
			c0-6.36,5.14-11.5,11.5-11.5h3.23C180.96,222.55,186.13,227.69,186.13,234.05z"/>
		<path class="st0" d="M189.24,181.66c0,9.31-6.77,15.79-16.36,15.79c-9.87,0-16.36-6.49-16.36-15.79c0-9.59,6.49-16.08,16.36-16.08
			C182.47,165.59,189.24,172.07,189.24,181.66z"/>
		<path class="st0" d="M343.19,355.01c0,2.95-1.1,5.64-2.95,7.68c-1.85,2.04-4.42,3.45-7.33,3.76c-2.51,0.28-5.39,0.5-8.62,0.5
			c-20.84,0-36.07-11-36.07-39.48V172.01c0-6.36,5.14-11.5,11.5-11.5h3.23c6.33,0,11.5,5.14,11.5,11.5v150.1
			c0,15.23,4.79,21.43,16.36,21.43h0.69C337.92,343.42,343.19,348.59,343.19,355.01z"/>
		<path class="st0" d="M479.68,234.05v118.01c0,6.33-5.14,11.5-11.5,11.5h-1.85c-6.24,0-11.31-4.95-11.5-11.19l-0.25-8.55
			c0-5.92,1.13-10.15,1.13-10.72h-0.56c-5.36,12.69-23.41,33.84-52.42,33.84c-34.69,0-48.23-20.59-48.23-55.84v-77.05
			c0-6.36,5.14-11.5,11.5-11.5h3.23c6.33,0,11.5,5.14,11.5,11.5v71.7c0,19.46,3.38,36.94,26.79,36.94c26.76,0,45.94-22,45.94-50.76
			v-57.88c0-6.36,5.17-11.5,11.5-11.5h3.23C474.55,222.55,479.68,227.69,479.68,234.05z"/>
		<path class="st0" d="M569.08,355.01c0,2.95-1.1,5.64-2.95,7.68c-1.82,2.04-4.39,3.45-7.33,3.76c-2.51,0.28-5.39,0.5-8.62,0.5
			c-20.87,0-36.1-11-36.1-39.48V172.01c0-6.36,5.17-11.5,11.5-11.5h3.26c6.33,0,11.47,5.14,11.47,11.5v150.1
			c0,15.23,4.79,21.43,16.36,21.43h0.72C563.82,343.42,569.08,348.59,569.08,355.01z"/>
		<path class="st0" d="M636.77,355.01c0,2.95-1.1,5.64-2.95,7.68c-1.82,2.04-4.39,3.45-7.33,3.76c-2.51,0.28-5.39,0.5-8.62,0.5
			c-20.87,0-36.1-11-36.1-39.48V172.01c0-6.36,5.17-11.5,11.5-11.5h3.23c6.36,0,11.5,5.14,11.5,11.5v150.1
			c0,15.23,4.79,21.43,16.36,21.43h0.72C631.5,343.42,636.77,348.59,636.77,355.01z"/>
		<path class="st0" d="M712.91,219.17c-41.74,0-72.45,31.3-72.45,73.89c0,42.58,30.71,73.89,72.45,73.89
			c42.02,0,72.76-31.3,72.76-73.89C785.68,250.47,754.94,219.17,712.91,219.17z M712.91,344.1c-27.07,0-47.1-21.15-47.1-51.05
			c0-29.89,20.02-51.05,47.1-51.05c27.36,0,47.38,21.15,47.38,51.05C760.29,322.95,740.27,344.1,712.91,344.1z"/>
	</g>
	<g>
		<path class="st1" d="M975.87,78.87c0.12-0.01,0.24-0.04,0.35-0.05c0.14-0.02,0.29-0.05,0.44-0.07
			C976.38,78.78,976.13,78.82,975.87,78.87z M921.32,22.83c-0.01,0.13-0.02,0.26-0.05,0.39c0.02-0.13,0.04-0.26,0.06-0.39
			c0.02-0.18,0.05-0.37,0.07-0.54C921.37,22.46,921.34,22.65,921.32,22.83z M920.76,26.36c-0.01,0.07-0.02,0.13-0.02,0.19
			c0.05-0.27,0.09-0.53,0.13-0.79C920.84,25.96,920.8,26.16,920.76,26.36z M814.53,191.64c0.27,0.07,0.54,0.12,0.82,0.15
			c0.45,0.06,0.9,0.12,1.34,0.16L814.53,191.64z"/>
		<path class="st1" d="M999.9,67.93c-0.01-0.13-0.04-0.26-0.07-0.38c0-0.02,0-0.05-0.01-0.07c-0.04-0.18-0.08-0.35-0.13-0.52
			c-0.39-1.43-1.16-2.7-2.19-3.7c-0.17-0.18-0.35-0.34-0.54-0.5c-0.01-0.01-0.02-0.01-0.04-0.02c-0.2-0.16-0.41-0.32-0.63-0.46
			c-0.22-0.15-0.45-0.28-0.67-0.4c-0.21-0.12-0.41-0.21-0.64-0.31c-0.22-0.09-0.45-0.19-0.7-0.26c-0.14-0.05-0.28-0.09-0.42-0.12
			c-0.15-0.05-0.32-0.08-0.48-0.12c-0.24-0.06-0.48-0.09-0.74-0.12c-0.06,0-0.12-0.01-0.19-0.01c-0.29-0.04-0.6-0.05-0.91-0.04
			c-1.58,0.04-3.16,0.11-4.75,0.2c-0.97,0.06-1.95,0.13-2.92,0.2c-0.97,0.08-1.95,0.18-2.92,0.27c-1.05,0.11-2.11,0.22-3.16,0.35
			c-0.91,0.12-1.8,0.24-2.71,0.37c-0.04,0-0.06,0.01-0.09,0.01c-0.05,0-0.09,0.01-0.14,0.02c-0.34,0.04-0.67,0.09-1,0.14
			c-0.22,0.04-0.45,0.07-0.67,0.11c-0.05,0.01-0.09,0.01-0.14,0.02c-0.58,0.09-1.17,0.19-1.76,0.28c-0.41,0.07-0.84,0.14-1.25,0.21
			c-0.7,0.12-1.39,0.26-2.09,0.39c-0.8,0.15-1.59,0.31-2.39,0.47c-0.11,0.02-0.22,0.05-0.33,0.07c-0.65,0.14-1.3,0.28-1.95,0.44
			c-0.27,0.06-0.54,0.12-0.8,0.18c-0.77,0.18-1.54,0.35-2.31,0.54c-0.15,0.04-0.32,0.08-0.47,0.12c-0.46,0.11-0.91,0.22-1.37,0.34
			c-0.88,0.22-1.78,0.46-2.66,0.7c-0.05,0.01-0.09,0.02-0.14,0.04c-0.79,0.22-1.57,0.45-2.35,0.67h-0.01
			c-0.01,0-0.02,0.01-0.02,0.01s0-0.01-0.01-0.01c-1.34-2.75-2.94-5.31-4.76-7.69c-0.28-0.37-0.57-0.72-0.87-1.07c0,0,0,0-0.01,0
			c-0.85-1.04-1.76-2.04-2.71-3.01c-0.97-0.97-1.98-1.9-3.04-2.76c-0.07,0.2-0.13,0.39-0.19,0.59c-0.07,0.25-0.15,0.48-0.24,0.72
			c-0.27,0.9-0.57,1.8-0.88,2.71l-0.25,0.78c-0.07,0.2-0.16,0.48-0.27,0.77c-1.34,3.88-2.83,7.73-4.46,11.55v0.01
			c0.04,0.04,0.06,0.06,0.08,0.09c0.02,0.04,0.05,0.07,0.07,0.11c0.28,0.35,0.54,0.72,0.79,1.1c0.04,0.04,0.06,0.08,0.09,0.13
			c0.25,0.38,0.49,0.77,0.73,1.17c0.06,0.08,0.11,0.18,0.15,0.26c0.08,0.13,0.15,0.26,0.22,0.39c0.19,0.33,0.38,0.67,0.54,1.01
			c0.17,0.33,0.33,0.66,0.48,1c0.18,0.37,0.34,0.74,0.51,1.12c0.15,0.38,0.31,0.77,0.46,1.16c0.14,0.39,0.28,0.78,0.42,1.18
			c0.13,0.41,0.26,0.81,0.38,1.23c0.01,0.01,0.01,0.01,0.01,0.02c0.27,0.98,0.53,1.98,0.74,3.02c0.38,1.87,0.64,3.82,0.77,5.85
			c0.24,3.5,0.08,7.23-0.41,11.09c-1.06,8.23-3.73,17.14-7.84,26.17c0,0.01-0.01,0.01-0.01,0.02c-3.47-9.41-8.19-18.06-14.11-25.89
			c-0.12-0.18-0.25-0.34-0.38-0.51c-0.38-0.48-0.74-0.97-1.12-1.45c-0.02-0.05-0.07-0.09-0.11-0.14c-0.15-0.21-0.32-0.41-0.5-0.61
			c-0.19-0.22-0.36-0.44-0.55-0.66c-0.63-0.77-1.27-1.52-1.92-2.26c-0.09-0.12-0.19-0.22-0.29-0.34c-0.13-0.15-0.26-0.31-0.4-0.46
			c-0.11-0.12-0.21-0.24-0.32-0.34c-0.24-0.27-0.47-0.53-0.72-0.79c-0.13-0.14-0.26-0.28-0.39-0.42c-0.6-0.65-1.2-1.27-1.82-1.9
			c-0.07-0.08-0.15-0.17-0.24-0.25c-0.07-0.08-0.15-0.17-0.24-0.25c-0.08-0.08-0.18-0.18-0.26-0.25c-0.08-0.08-0.17-0.17-0.25-0.24
			c-0.64-0.62-1.27-1.24-1.92-1.84c-0.13-0.12-0.26-0.25-0.39-0.37c-0.01,0-0.02,0-0.04-0.02c-0.11-0.11-0.2-0.2-0.31-0.29
			c-0.4-0.37-0.8-0.72-1.21-1.08c-0.04-0.04-0.09-0.08-0.14-0.12c-0.25-0.22-0.5-0.44-0.74-0.65c-0.27-0.24-0.54-0.47-0.81-0.7
			c-0.58-0.5-1.16-0.98-1.74-1.44c-0.14-0.12-0.28-0.24-0.42-0.34c-0.42-0.34-0.85-0.67-1.29-1c-0.13-0.12-0.27-0.22-0.42-0.33
			c-0.14-0.12-0.29-0.22-0.45-0.33c0,0-0.01,0-0.01-0.01c-0.25-0.2-0.51-0.39-0.77-0.58c-0.15-0.12-0.31-0.22-0.46-0.34
			c-0.58-0.42-1.17-0.84-1.76-1.25c-0.66-0.46-1.32-0.9-1.99-1.34c-1.24-0.81-2.5-1.62-3.77-2.37c-0.22-0.13-0.45-0.26-0.67-0.39
			c-1.06-0.63-2.13-1.23-3.23-1.82c-0.04-0.02-0.07-0.04-0.11-0.06c-0.27-0.15-0.54-0.29-0.81-0.42c-0.49-0.26-0.99-0.52-1.49-0.78
			c-0.67-0.33-1.34-0.67-2.03-0.99c-0.01-0.01-0.04-0.01-0.05-0.02c-0.39-0.19-0.78-0.37-1.17-0.54c-0.39-0.19-0.78-0.35-1.18-0.53
			c-0.14-0.07-0.28-0.13-0.42-0.19c-0.33-0.15-0.65-0.29-0.98-0.44c-0.05-0.02-0.09-0.04-0.14-0.06c-0.25-0.11-0.51-0.22-0.77-0.33
			c-0.4-0.16-0.8-0.34-1.21-0.5c-0.5-0.2-1-0.4-1.51-0.59c-0.44-0.18-0.88-0.34-1.33-0.52c-0.04-0.01-0.06-0.02-0.09-0.04
			c-0.01-0.01-0.01-0.01-0.02-0.01c9.07-4.14,18.01-6.81,26.27-7.87c3.87-0.5,7.59-0.64,11.09-0.41c2.02,0.13,3.96,0.39,5.82,0.77
			c1.05,0.21,2.05,0.46,3.04,0.75c0.13,0.04,0.25,0.07,0.38,0.11c1.5,0.46,2.91,1,4.26,1.64c0.35,0.16,0.71,0.33,1.05,0.51
			c0.48,0.25,0.95,0.51,1.41,0.78c1.06-2.64,2.06-5.31,2.98-7.97c0.04-0.11,0.07-0.2,0.09-0.29c0.02-0.06,0.05-0.13,0.07-0.19
			l0.28-0.85c0.01-0.04,0.02-0.06,0.04-0.09c0.28-0.84,0.55-1.67,0.81-2.51c0.19-0.57,0.35-1.14,0.53-1.71
			c0.12-0.37,0.22-0.74,0.33-1.11c0.11-0.35,0.21-0.72,0.32-1.07h-0.01c0.24-0.8,0.46-1.61,0.7-2.42c0.01-0.01,0.01-0.04,0.01-0.06
			c0.22-0.83,0.45-1.65,0.66-2.48c0.42-1.65,0.81-3.3,1.19-4.95c0.71-3.14,1.31-6.27,1.82-9.4c0.08-0.51,0.17-1,0.22-1.51
			c0.07-0.45,0.14-0.9,0.2-1.34c0.09-0.66,0.18-1.32,0.26-1.97c0.04-0.29,0.08-0.6,0.12-0.9c0.01-0.06,0.01-0.12,0.01-0.18
			c0.04-0.25,0.06-0.5,0.09-0.74c0.05-0.38,0.08-0.74,0.12-1.12c0.07-0.61,0.13-1.23,0.19-1.83c0-0.02,0.01-0.04,0-0.05
			c0.04-0.31,0.06-0.61,0.08-0.92c0.01-0.09,0.02-0.19,0.02-0.28c0.01-0.04,0.01-0.08,0.01-0.12c0.04-0.34,0.06-0.68,0.08-1.03
			c0.06-0.67,0.11-1.34,0.14-2.02c0.11-1.71,0.18-3.42,0.22-5.12c0.11-4.56-3.49-8.35-8.05-8.45c-0.64-0.01-1.25,0.04-1.84,0.17
			c-0.27,0.05-0.52,0.12-0.78,0.19c-0.77,0.24-1.49,0.58-2.13,1c-0.44,0.29-0.85,0.62-1.21,0.99c-1.49,1.45-2.43,3.45-2.49,5.69
			c-0.02,1.05-0.07,2.1-0.13,3.15c-0.01,0.52-0.05,1.04-0.08,1.57c-0.04,0.53-0.07,1.06-0.11,1.59c-0.06,0.71-0.12,1.4-0.18,2.11
			c-0.05,0.54-0.11,1.08-0.16,1.63c-0.01,0.05-0.01,0.09-0.01,0.14c-0.02,0.12-0.04,0.24-0.05,0.35c-0.05,0.47-0.11,0.94-0.16,1.41
			c-0.01,0.11-0.02,0.21-0.04,0.33c-0.01,0.11-0.02,0.21-0.05,0.33c-0.07,0.54-0.13,1.08-0.21,1.63c-0.02,0.18-0.05,0.37-0.07,0.54
			c-0.02,0.13-0.04,0.26-0.06,0.39c-0.02,0.13-0.04,0.26-0.06,0.39c-0.01,0.06-0.02,0.12-0.02,0.19c-0.02,0.17-0.05,0.33-0.08,0.51
			c-0.06,0.45-0.13,0.9-0.21,1.34c-0.01,0.04-0.01,0.08-0.02,0.12c-0.04,0.26-0.08,0.52-0.13,0.79c-0.05,0.31-0.11,0.62-0.17,0.94
			c-0.05,0.29-0.11,0.59-0.17,0.9c-0.09,0.51-0.19,1.01-0.29,1.51c-0.16,0.81-0.33,1.64-0.51,2.45c-0.07,0.33-0.15,0.67-0.22,1.01
			c-0.66,2.9-1.41,5.82-2.26,8.74c-3.3-0.46-6.73-0.66-10.26-0.58h-0.01c-17.4,0.29-37.21,6.9-56.4,19c-5-0.68-10.11-1.1-15.31-1.19
			c-1-0.02-2-0.02-3.02-0.02c-0.22,0-0.45,0.01-0.66,0.02c-26.63,0.99-51.53,7.93-70.12,19.57c-19.98,12.51-30.99,29.32-30.99,47.32
			c0,7.99,2.17,15.8,6.45,23.17c0.04,0.07,0.08,0.13,0.12,0.2c2.52,4.3,5.75,8.43,9.62,12.3c5.78,5.78,12.97,10.99,21.35,15.43
			c5.05,2.66,10.55,5.06,16.36,7.12c4.72,1.66,9.6,3.1,14.64,4.3c3.36,0.8,6.79,1.51,10.28,2.1l5.36,0.8l2.17,0.32l0.2,0.04
			c0.29,0.04,0.58,0.07,0.87,0.11c2.83,0.33,5.68,0.59,8.55,0.78c0-0.01,0-0.01,0-0.02c0.06,0.01,0.11,0.01,0.16,0.01
			c0.07,0,0.14,0.01,0.2,0.01c0.25,0.02,0.49,0.02,0.74,0.04c0.44,0.04,0.88,0.05,1.32,0.07c0.58,0.02,1.14,0.06,1.71,0.08
			c0.62,0.02,1.24,0.07,1.86,0.09h0.09c1.91,0.06,3.83,0.09,5.74,0.09h0.72c1.11-0.01,2.19-0.02,3.23-0.05
			c1.27-0.02,2.5-0.07,3.7-0.13c4.07-0.18,8.13-0.48,12.08-0.93h0.01c3.65-0.41,7.24-0.94,10.78-1.57c1.76-0.32,3.5-0.66,5.23-1.03
			c3.45-0.74,6.84-1.59,10.15-2.55c0.21-0.06,0.4-0.13,0.61-0.19c4.74-1.39,9.34-2.99,13.75-4.82c0,0,0,0,0.01,0
			c1.3-0.54,2.57-1.1,3.82-1.66c0.42-0.19,0.83-0.39,1.24-0.59c0.84-0.39,1.66-0.77,2.46-1.17c0.47-0.24,0.94-0.48,1.4-0.73
			c0.73-0.37,1.46-0.74,2.17-1.13c0.47-0.26,0.94-0.53,1.41-0.79c0.68-0.39,1.36-0.77,2.02-1.16l1.38-0.85
			c0.65-0.39,1.29-0.79,1.91-1.2c0.45-0.28,0.88-0.58,1.32-0.87c0.62-0.41,1.23-0.84,1.83-1.26c0.42-0.29,0.84-0.6,1.26-0.91
			c0.58-0.42,1.16-0.87,1.73-1.31c0.4-0.32,0.8-0.62,1.19-0.94c0.2-0.15,0.4-0.31,0.6-0.46V167c0,0.44,0,0.87-0.01,1.32
			c-0.17,4.02-0.47,7.98-0.94,11.85c-4.85,41.19-25.76,72.97-49.45,72.97c-4.99,0-9.94-1.39-14.72-4.13
			c-0.06-0.04-0.12-0.07-0.18-0.11c-8.12-4.69-15.59-13.17-21.6-24.53c-2.3-4.31-4.36-9.07-6.15-14.13
			c-0.83-2.35-1.59-4.74-2.3-7.18c-4.04-0.2-8.12-0.54-12.19-1.01c-0.59-0.06-1.19-0.14-1.79-0.21l-0.72-0.09
			c-0.98-0.13-1.93-0.33-2.85-0.6c1.19,5.02,2.63,9.9,4.29,14.61c2.06,5.84,4.47,11.34,7.13,16.35c4.43,8.39,9.66,15.6,15.42,21.37
			c3.88,3.88,8,7.11,12.31,9.62c0.07,0.04,0.14,0.08,0.2,0.12c7.39,4.27,15.17,6.44,23.15,6.44c17.93,0,34.09-10.85,46.05-28.86
			c11.95-18.01,19.71-43.21,20.84-71.94c0.01-0.08,0.01-0.18,0.01-0.27c0.01-1.21,0.01-2.43-0.01-3.64
			c-0.08-5.2-0.49-10.34-1.19-15.36v-0.04c12.1-19.18,18.7-39,19-56.4c-0.24,0.07-0.46,0.14-0.7,0.21
			c-0.06,0.02-0.12,0.05-0.18,0.06c-0.13,0.05-0.27,0.09-0.41,0.13c-0.65,0.2-1.27,0.41-1.91,0.62c-0.16,0.06-0.32,0.12-0.48,0.16
			l-0.22,0.07c-0.13,0.05-0.26,0.09-0.39,0.14c-4.23,1.45-8.49,3.12-12.69,5.02c0.51-3.87,0.65-7.59,0.41-11.09
			c2.91-1.21,5.84-2.31,8.75-3.31c0.11-0.02,0.21-0.06,0.32-0.09c2.31-0.8,4.62-1.52,6.92-2.18c0.01-0.01,0.01-0.01,0.02-0.01
			c3.27-0.95,6.52-1.78,9.76-2.48c0.7-0.15,1.39-0.31,2.1-0.45c-0.96,0.18-1.91,0.38-2.85,0.59c0.99-0.22,1.99-0.44,2.98-0.62h0.01
			c0.11-0.01,0.2-0.04,0.31-0.06c0.46-0.08,0.93-0.19,1.39-0.27c1.41-0.27,2.83-0.51,4.24-0.72c0.26-0.05,0.52-0.09,0.79-0.12
			c0.78-0.13,1.56-0.24,2.33-0.33c0.46-0.06,0.91-0.12,1.37-0.16c0.75-0.09,1.5-0.18,2.25-0.25c0.6-0.06,1.2-0.12,1.82-0.17
			c0.77-0.07,1.54-0.13,2.32-0.18c0.74-0.06,1.5-0.11,2.24-0.13c0.99-0.06,1.98-0.09,2.97-0.12c0.22,0,0.45-0.02,0.66-0.05
			c0.09-0.01,0.19-0.02,0.28-0.04c0.2-0.02,0.4-0.06,0.59-0.11c0.09-0.02,0.19-0.04,0.28-0.07c0.04,0,0.07-0.01,0.11-0.02
			c0.08-0.01,0.15-0.04,0.22-0.07c0.06,0,0.11-0.01,0.15-0.05c0.09-0.02,0.19-0.06,0.28-0.09c0.02,0,0.04,0,0.05-0.01
			c0.12-0.04,0.24-0.08,0.35-0.14c0.01,0,0.02,0,0.04-0.01c0.09-0.04,0.18-0.07,0.27-0.12c0.14-0.06,0.28-0.13,0.42-0.21
			c0.12-0.07,0.24-0.13,0.34-0.2c0.19-0.11,0.37-0.22,0.54-0.35c0.19-0.13,0.37-0.27,0.53-0.41c0.2-0.18,0.39-0.35,0.58-0.54
			c0.2-0.2,0.4-0.42,0.57-0.65c0.14-0.18,0.28-0.37,0.4-0.55c0.14-0.2,0.26-0.41,0.38-0.62c0.09-0.16,0.18-0.34,0.25-0.52
			c0.07-0.13,0.13-0.26,0.18-0.39c0.08-0.19,0.15-0.39,0.21-0.6c0.07-0.25,0.14-0.51,0.19-0.78c0.13-0.59,0.18-1.2,0.17-1.84
			C999.99,68.61,999.96,68.26,999.9,67.93z M822.15,92.64c-0.24,0.46-0.48,0.93-0.72,1.4c-0.41,0.81-0.8,1.65-1.19,2.49
			c-0.19,0.4-0.39,0.8-0.58,1.2c-0.57,1.26-1.12,2.53-1.66,3.84c-3.82,9.21-6.68,19.18-8.58,29.74c-0.62,3.52-1.14,7.11-1.56,10.75
			c-0.22,1.97-0.42,3.97-0.58,6c-0.15,2.02-0.28,4.04-0.37,6.07c-0.04,0.61-0.06,1.23-0.08,1.85c-0.06,1.87-0.09,3.81-0.09,5.85
			c0,1.96,0.04,3.91,0.09,5.86c0.02,0.7,0.07,1.39,0.11,2.09c0.01,0.33,0.02,0.65,0.05,0.98c0.02,0.6,0.06,1.2,0.09,1.79
			c0.01,0.32,0.02,0.65,0.05,0.97v0.15c-3.47-0.71-6.86-1.54-10.16-2.5c-2.45-0.7-4.86-1.46-7.21-2.3
			c-5.05-1.79-9.82-3.87-14.16-6.15c-11.33-6-19.81-13.46-24.51-21.6c-0.04-0.06-0.07-0.13-0.11-0.19
			c-2.74-4.77-4.13-9.73-4.13-14.71c0-23.77,31.79-44.66,73.06-49.47c4.01-0.47,8.11-0.79,12.27-0.94h0.86
			c-0.15,0.19-0.31,0.39-0.46,0.58c-0.33,0.41-0.65,0.84-0.98,1.25c-0.42,0.55-0.85,1.11-1.26,1.67c-0.32,0.44-0.64,0.87-0.95,1.32
			c-0.41,0.58-0.81,1.17-1.2,1.76c-0.32,0.46-0.62,0.92-0.92,1.39c-0.4,0.6-0.79,1.23-1.17,1.84c-0.19,0.31-0.38,0.61-0.55,0.92
			c-0.12,0.18-0.21,0.34-0.32,0.52c-0.33,0.55-0.66,1.12-0.97,1.7c-0.06,0.09-0.11,0.19-0.17,0.28c-0.27,0.47-0.54,0.94-0.81,1.44
			c-0.29,0.53-0.57,1.06-0.84,1.6C822.34,92.26,822.24,92.45,822.15,92.64z M850.35,176.28c-1.74,0.13-3.51,0.24-5.29,0.32
			c-0.54,0.02-1.08,0.05-1.65,0.07c-1.66,0.05-3.4,0.08-5.25,0.08c-1.54,0-3.08-0.04-4.62-0.07c-0.41-0.01-0.82-0.04-1.24-0.05
			c-1.36-0.05-2.7-0.12-4.04-0.2c-0.21-0.01-0.42-0.01-0.62-0.04c-1.25-0.07-2.5-0.19-3.74-0.29c-0.05-0.45-0.08-0.9-0.12-1.34
			c-0.07-0.78-0.14-1.56-0.19-2.35c-0.01-0.19-0.01-0.39-0.02-0.58c-0.02-0.31-0.04-0.6-0.05-0.91c-0.07-1.06-0.12-2.12-0.15-3.19
			c-0.02-0.41-0.04-0.81-0.05-1.23c-0.05-1.56-0.07-3.11-0.07-4.67c0-1.23,0.01-2.4,0.04-3.56c0.02-1.16,0.07-2.28,0.12-3.4
			c0.08-1.74,0.19-3.5,0.32-5.23c6.87-1.31,12.84-0.99,17.38,0.88c0.39,0.16,0.77,0.33,1.13,0.51c0.22,0.11,0.45,0.22,0.66,0.34
			c0.44,0.24,0.85,0.5,1.25,0.77c0.74,0.52,1.43,1.08,2.05,1.71c0.41,0.41,0.8,0.85,1.17,1.32c0.15,0.2,0.31,0.41,0.46,0.62
			c0.28,0.4,0.54,0.81,0.78,1.25C851.21,161.77,851.83,168.45,850.35,176.28z M884.18,169.69c-0.16,0.06-0.32,0.12-0.48,0.16
			c-1.34,0.44-2.69,0.85-4.06,1.25c-0.44,0.12-0.87,0.24-1.31,0.35c-0.95,0.27-1.91,0.53-2.86,0.78c-0.54,0.13-1.07,0.26-1.62,0.39
			c-0.88,0.21-1.78,0.42-2.68,0.61c-0.57,0.13-1.14,0.25-1.71,0.37c-0.7,0.15-1.39,0.28-2.09,0.4c-0.01,0.01-0.02,0.01-0.04,0.01
			c1.16-11.02-0.93-20.6-6.17-27.92c0-0.01-0.01-0.01-0.02-0.02c-0.5-0.68-1.01-1.36-1.57-2c-0.54-0.65-1.13-1.27-1.73-1.89
			c-0.94-0.94-1.93-1.82-2.97-2.61c-0.77-0.61-1.56-1.17-2.37-1.69c-0.47-0.31-0.97-0.6-1.46-0.87c-0.51-0.28-1.01-0.55-1.52-0.81
			c-1.04-0.51-2.1-0.98-3.21-1.39c-0.97-0.37-1.97-0.68-2.99-0.95c-0.79-0.24-1.6-0.44-2.43-0.6c-1.7-0.35-3.44-0.6-5.26-0.75
			c-3.07-0.25-6.3-0.2-9.67,0.15c0.13-0.72,0.27-1.44,0.41-2.13c0.12-0.58,0.24-1.14,0.37-1.71c0.19-0.9,0.4-1.79,0.61-2.68
			c0.13-0.54,0.26-1.07,0.39-1.61c0.25-0.95,0.51-1.91,0.77-2.86c0.13-0.44,0.24-0.87,0.37-1.31c0.4-1.36,0.81-2.71,1.25-4.04
			c0.05-0.17,0.11-0.33,0.17-0.48c0.34-1.05,0.71-2.09,1.07-3.11c9.82-0.17,18.7,1.49,26.38,4.9c0.5,0.22,0.98,0.45,1.46,0.67
			c1.78,0.85,3.49,1.8,5.13,2.84c2.92,1.86,5.62,4.02,8.08,6.48c2.76,2.76,5.14,5.81,7.14,9.16c0.22,0.37,0.44,0.74,0.65,1.12
			c0.64,1.12,1.23,2.26,1.77,3.45c0.2,0.39,0.38,0.79,0.54,1.2c0.2,0.46,0.39,0.91,0.58,1.38c0.35,0.87,0.67,1.74,0.98,2.64
			c2.25,6.63,3.32,14.03,3.19,22.03C886.26,168.99,885.23,169.34,884.18,169.69z M921.95,145.93c-0.17,0.2-0.33,0.4-0.5,0.6
			c-0.44,0.53-0.88,1.06-1.34,1.58c-0.21,0.24-0.42,0.47-0.65,0.7c-0.47,0.52-0.96,1.01-1.46,1.52c-0.2,0.2-0.4,0.4-0.61,0.6
			c-0.71,0.7-1.45,1.38-2.23,2.05c-1.53,1.33-3.16,2.63-4.89,3.87c-0.87,0.62-1.76,1.24-2.68,1.84c-1.29,0.84-2.63,1.65-4.01,2.44
			c-0.01,0.01-0.02,0.01-0.04,0.02c-0.63-8.79-2.53-17.04-5.67-24.52c-0.45-1.07-0.92-2.12-1.43-3.16v-0.01
			c-0.62-1.27-1.27-2.52-1.96-3.75c-0.34-0.61-0.7-1.21-1.06-1.82c-0.53-0.86-1.06-1.71-1.62-2.55c0-0.01-0.02-0.02-0.02-0.02
			c-0.57-0.84-1.14-1.66-1.73-2.46c-0.01-0.01-0.01-0.02-0.02-0.02c-0.6-0.81-1.23-1.6-1.85-2.37c-1.28-1.57-2.65-3.08-4.09-4.51
			c-6.64-6.64-14.69-11.68-23.77-15.01c-0.51-0.19-1.03-0.38-1.56-0.54c-0.24-0.08-0.47-0.17-0.72-0.25
			c-0.34-0.12-0.68-0.22-1.04-0.33c-0.31-0.09-0.61-0.19-0.92-0.28c-0.73-0.21-1.47-0.42-2.22-0.61c-0.27-0.07-0.53-0.14-0.8-0.21
			c-0.79-0.2-1.59-0.39-2.39-0.57c-0.22-0.05-0.46-0.09-0.68-0.15c-0.91-0.19-1.84-0.37-2.77-0.53c-0.15-0.02-0.32-0.05-0.48-0.08
			c-0.96-0.15-1.92-0.29-2.89-0.42c-1.65-0.22-3.3-0.39-4.99-0.51h-0.01c0.63-1.08,1.26-2.13,1.92-3.16
			c0.33-0.52,0.66-1.03,0.99-1.53c1.66-2.5,3.42-4.82,5.27-6.94c0.65-0.74,1.31-1.46,1.97-2.16c0.21-0.22,0.44-0.42,0.65-0.65
			c0.46-0.47,0.93-0.93,1.41-1.37c0.25-0.24,0.5-0.46,0.74-0.68c0.46-0.41,0.93-0.83,1.41-1.21h0.01c0.24-0.21,0.46-0.4,0.71-0.59
			c0.12-0.09,0.24-0.18,0.35-0.27c0.35,0.07,0.71,0.14,1.06,0.24c0.24,0.05,0.47,0.11,0.72,0.15c0.01,0,0.02,0,0.02,0
			c1.03,0.21,2.04,0.46,3.04,0.72c0.54,0.13,1.07,0.27,1.59,0.42c0.65,0.16,1.28,0.35,1.92,0.54c0.64,0.18,1.26,0.38,1.89,0.58
			c0.63,0.2,1.25,0.4,1.86,0.61c9.23,3.17,17.7,7.73,25.1,13.53c0.34,0.27,0.68,0.53,1.01,0.81c0.14,0.11,0.28,0.21,0.41,0.33
			c0.11,0.09,0.22,0.19,0.34,0.28c0.11,0.08,0.21,0.18,0.33,0.28c0.42,0.37,0.86,0.73,1.29,1.1c0.32,0.28,0.64,0.57,0.94,0.85
			c0.34,0.28,0.67,0.59,0.99,0.9c0.07,0.06,0.13,0.13,0.2,0.19c0.07,0.06,0.14,0.12,0.21,0.19c0.27,0.26,0.54,0.52,0.8,0.78
			c0.54,0.53,1.06,1.06,1.59,1.6c0.34,0.35,0.68,0.7,1.01,1.05c0.34,0.37,0.68,0.74,1.01,1.12c0.29,0.32,0.58,0.64,0.86,0.95
			c0.37,0.41,0.72,0.84,1.07,1.26c0.39,0.46,0.78,0.93,1.16,1.4c0.04,0.05,0.08,0.09,0.12,0.15c0.07,0.08,0.14,0.17,0.2,0.25
			c0.07,0.09,0.13,0.18,0.2,0.27c0.09,0.11,0.18,0.22,0.27,0.34c7.96,10.26,13.53,22.49,16.38,36.02c0.07,0.29,0.14,0.59,0.2,0.9
			C922.06,145.77,922.01,145.86,921.95,145.93z"/>
		<path class="st1" d="M953.11,67.06c0.01,0,0.01,0.01,0.01,0.01s0.01-0.01,0.02-0.01v-0.01C953.14,67.05,953.12,67.06,953.11,67.06
			z"/>
		<path class="st2" d="M922.26,14.35c-0.06,0.71-0.12,1.4-0.18,2.11c-0.05,0.54-0.11,1.08-0.16,1.63c-0.01,0.05-0.01,0.09-0.01,0.14
			c-0.02,0.12-0.04,0.24-0.05,0.35C922.01,17.17,922.16,15.75,922.26,14.35z"/>
		<path class="st1" d="M933.63,44.45c-0.21,0.77-0.42,1.53-0.65,2.3c-0.01,0.04-0.02,0.07-0.04,0.12h-0.01
			C933.17,46.06,933.39,45.25,933.63,44.45z"/>
		<path class="st1" d="M934.3,41.91c0,0.05-0.01,0.08-0.02,0.12c-0.2,0.79-0.41,1.58-0.64,2.36
			C933.86,43.56,934.09,42.74,934.3,41.91z"/>
		<path class="st1" d="M937.3,27.56c-0.05,0.32-0.09,0.64-0.15,0.95c-0.08,0.5-0.17,0.99-0.25,1.47c-0.14,0.8-0.29,1.59-0.45,2.39
			c-0.12,0.61-0.24,1.23-0.37,1.85c-0.04,0.18-0.07,0.37-0.12,0.55c-0.12,0.57-0.24,1.13-0.37,1.7c-0.27,1.21-0.55,2.44-0.85,3.67
			c-0.02,0.11-0.06,0.22-0.08,0.33c-0.12,0.47-0.25,0.95-0.37,1.43h-0.01c0.42-1.65,0.81-3.3,1.19-4.95
			C936.2,33.82,936.8,30.69,937.3,27.56z"/>
		<path class="st1" d="M938.21,20.93c-0.01,0.12-0.02,0.24-0.04,0.35c-0.02,0.13-0.04,0.26-0.06,0.39
			C938.15,21.42,938.18,21.18,938.21,20.93z"/>
		<path class="st1" d="M955.51,66.39c-0.79,0.22-1.57,0.45-2.35,0.67h-0.01c-0.01,0-0.02,0.01-0.02,0.01s0-0.01-0.01-0.01
			c0.01,0,0.02-0.01,0.04-0.01C953.94,66.81,954.72,66.6,955.51,66.39z"/>
		<path class="st3" d="M941.71,52.53c-0.07,0.2-0.13,0.39-0.19,0.59c-0.07,0.25-0.15,0.48-0.24,0.72c-0.27,0.9-0.57,1.8-0.88,2.71
			l-0.25,0.78c-0.07,0.2-0.16,0.48-0.27,0.77c-1.34,3.88-2.83,7.73-4.46,11.55c-0.07-0.11-0.15-0.21-0.24-0.31
			c-0.29-0.38-0.59-0.74-0.91-1.1c-0.38-0.44-0.78-0.85-1.18-1.26c-0.01-0.01-0.01-0.01-0.02-0.02c-0.77-0.77-1.58-1.49-2.43-2.16
			c-0.11-0.08-0.2-0.15-0.31-0.24h-0.01c-0.74-0.58-1.52-1.11-2.32-1.59c-0.18-0.12-0.35-0.21-0.53-0.32
			c1.06-2.64,2.06-5.31,2.98-7.97c0.04-0.11,0.07-0.2,0.09-0.29c0.02-0.06,0.05-0.13,0.07-0.19l0.28-0.85
			c0.01-0.04,0.02-0.06,0.04-0.09c0.28-0.84,0.55-1.67,0.81-2.51c0.19-0.57,0.35-1.14,0.53-1.71c0.12-0.37,0.22-0.74,0.33-1.11
			c0.11-0.35,0.21-0.72,0.32-1.07c0.01,0.01,0.01,0.01,0.02,0.02c1.08,0.53,2.16,1.11,3.18,1.73c0.71,0.41,1.4,0.85,2.08,1.31
			c0.68,0.46,1.34,0.94,2,1.44C940.73,51.73,941.23,52.12,941.71,52.53z"/>
		<path class="st3" d="M828.82,203.07c-4.04-0.2-8.12-0.54-12.19-1.01c-0.59-0.06-1.19-0.14-1.79-0.21l-0.72-0.09
			c-0.98-0.13-1.93-0.33-2.85-0.6c-0.81-3.37-1.51-6.81-2.1-10.3l5.36,0.8c0.27,0.07,0.54,0.12,0.82,0.15
			c0.45,0.06,0.9,0.12,1.34,0.16l0.2,0.04c0.29,0.04,0.58,0.07,0.87,0.11c2.83,0.33,5.68,0.59,8.55,0.78
			C827.03,196.35,827.87,199.75,828.82,203.07z"/>
		<path class="st3" d="M958.48,93.15c-0.24,0.07-0.46,0.14-0.7,0.21c-0.06,0.02-0.12,0.05-0.18,0.06c-0.13,0.05-0.27,0.09-0.41,0.13
			c-0.65,0.2-1.27,0.41-1.91,0.62c-0.16,0.06-0.32,0.12-0.48,0.16l-0.22,0.07c-0.13,0.05-0.26,0.09-0.39,0.14
			c-4.23,1.45-8.49,3.12-12.69,5.02c0.51-3.87,0.65-7.59,0.41-11.09c2.91-1.21,5.84-2.31,8.75-3.31c0.11-0.02,0.21-0.06,0.32-0.09
			c2.31-0.8,4.62-1.52,6.92-2.18C958.36,86.19,958.56,89.62,958.48,93.15z"/>
	</g>
</g>
</svg>
